<svg width="529" height="27" viewBox="0 0 529 27" fill="none" xmlns="http://www.w3.org/2000/svg">
<path d="M27.8267 20.1349H21.6445L28.6493 12.9297L21.8691 5.93555H28.4247L31.9397 9.65695L35.4541 5.93555H41.6861L34.9558 12.8241L41.9101 20.1349H35.6289L31.6906 16.0704L27.8267 20.1349Z" fill="white"/>
<path d="M48.3649 5.93555V20.1349H42.8066V5.93555H48.3649Z" fill="white"/>
<path d="M59.6181 20.5303H58.5955C50.7687 20.5303 49.9707 17.3103 49.9707 15.4892V15.3309H55.7044C55.7044 15.8587 55.9037 17.2575 59.1443 17.2575H59.1935C62.2846 17.2575 62.6587 16.5977 62.6587 15.9115V15.8587C62.6587 15.1197 62.3351 14.6974 59.7177 14.6183L57.3243 14.5655C51.4917 14.4335 50.0956 12.2165 50.0956 10.1315V9.97306C50.0956 7.78247 51.1927 5.53906 58.5709 5.53906H59.5676C66.3478 5.53906 67.9684 7.78247 67.9684 9.99947V10.1842H62.3098C62.2354 9.65638 61.9856 8.73263 58.9948 8.73263H58.9696C56.3024 8.73263 55.7788 9.07572 55.7788 9.78837V9.84113C55.7788 10.4745 56.2778 10.8968 58.5955 10.976L60.9889 11.0288C67.1711 11.1608 68.4668 12.6388 68.4668 15.4892V15.6475C68.4668 18.2605 67.0209 20.5303 59.6181 20.5303Z" fill="white"/>
<path d="M21.6387 20.1335H27.8155L41.6956 5.92969H35.4536L21.6387 20.1335Z" fill="white"/>
<path d="M13.3518 13.9593V13.5108L7.73139 14.3815C6.22733 14.619 5.59404 14.8829 5.59404 15.7009V15.7273C5.59404 16.4925 6.17455 17.3369 8.17996 17.3369C11.32 17.3369 13.3518 15.6481 13.3518 13.9593ZM13.5101 18.3132C12.9032 19.0784 11.1089 20.5297 6.93978 20.5297H6.59674C1.8207 20.5297 0 18.3132 0 15.8856V15.7009C0 13.0886 1.71515 11.8484 5.96346 11.4526L12.4547 10.8457C13.1143 10.7665 13.3518 10.5554 13.3518 10.1068C13.3518 9.5791 13.1143 8.94581 9.65763 8.94581H9.5257C6.01623 8.94581 5.8843 10.0541 5.80514 10.529H0.343031V10.4763C0.343031 8.60278 0.897157 5.67383 8.81325 5.67383H10.2645C18.4973 5.67383 19.025 8.20698 19.025 10.2652V15.7009C19.025 16.1231 19.1569 16.4133 19.7638 16.4133H20.5291V20.2658H15.753C14.6184 20.2658 13.7212 19.6589 13.5101 18.3132Z" fill="white"/>
<path d="M74.1309 15.3677V10.6906H521.249L512.88 3.30564L516.185 0L528.599 11.4291V14.5941L516.185 26.0583L512.88 22.7527L521.249 15.3677H74.1309Z" fill="white"/>
</svg>
