<svg width="171" height="80" viewBox="0 0 171 80" fill="none" xmlns="http://www.w3.org/2000/svg">
<path d="M3.80798 65.0527V58.8374H0.30639V56.9115H9.89201V58.8374H6.37947V65.0527H3.80798ZM10.7541 65.0527V56.9115H17.7244C20.0552 56.9115 20.7008 57.8088 20.7008 58.7717V58.9249C20.7008 59.9864 19.8035 60.3912 19.4096 60.5116C19.9676 60.6539 21.1604 61.1244 21.1604 62.5578V62.711C21.1604 63.9913 20.4272 65.0527 17.7901 65.0527H10.7541ZM17.2867 58.6295H13.3037V59.9535H17.2867C17.998 59.9535 18.1731 59.6253 18.1731 59.297V59.2751C18.1731 58.9359 17.998 58.6295 17.2867 58.6295ZM17.5056 61.6824H13.3037V63.2801H17.5056C18.3482 63.2801 18.5123 62.8095 18.5123 62.4813V62.4375C18.5123 62.0873 18.3482 61.6824 17.5056 61.6824ZM27.3052 56.7693H27.7757C32.8968 56.7693 33.4986 59.3408 33.4986 60.7961V61.1244C33.4986 62.5578 32.9077 65.195 27.7757 65.195H27.3052C22.1513 65.195 21.5713 62.5578 21.5713 61.1244V60.7961C21.5713 59.3408 22.1513 56.7693 27.3052 56.7693ZM30.8287 61.0259V60.8727C30.8287 59.9426 30.2925 58.7389 27.535 58.7389C24.7337 58.7389 24.2413 59.9426 24.2413 60.8727V61.004C24.2413 61.9341 24.7775 63.2144 27.535 63.2144C30.2706 63.2144 30.8287 61.967 30.8287 61.0259ZM42.3259 65.0527V59.68L36.8656 65.0527H34.316V56.9115H36.8656V62.3062L42.3259 56.9115H44.8755V65.0527H42.3259ZM39.8638 56.441H39.4918C37.5112 56.441 37.1173 55.2154 37.1173 54.6683V54.6464H38.9994C38.9994 54.7887 39.0978 55.1717 39.6887 55.1717C40.2577 55.1717 40.3672 54.7887 40.3672 54.6464H42.2055V54.6683C42.2055 55.2154 41.6803 56.441 39.8638 56.441ZM54.8644 56.7693H55.3349C60.456 56.7693 61.0579 59.3408 61.0579 60.7961V61.1244C61.0579 62.5578 60.467 65.195 55.3349 65.195H54.8644C49.7105 65.195 49.1306 62.5578 49.1306 61.1244V60.7961C49.1306 59.3408 49.7105 56.7693 54.8644 56.7693ZM58.3879 61.0259V60.8727C58.3879 59.9426 57.8517 58.7389 55.0942 58.7389C52.2929 58.7389 51.8005 59.9426 51.8005 60.8727V61.004C51.8005 61.9341 52.3367 63.2144 55.0942 63.2144C57.8298 63.2144 58.3879 61.967 58.3879 61.0259ZM68.0139 62.339H64.4576V65.0527H61.908V56.9115H68.0139C70.9465 56.9115 71.811 58.0714 71.811 59.5596V59.669C71.811 61.1244 70.9246 62.339 68.0139 62.339ZM64.4576 58.7608V60.5116H67.9702C68.769 60.5116 69.152 60.2162 69.152 59.6581V59.6253C69.152 59.0672 68.7909 58.7608 67.9702 58.7608H64.4576ZM80.5605 65.0527V59.68L75.1002 65.0527H72.5506V56.9115H75.1002V62.3062L80.5605 56.9115H83.1101V65.0527H80.5605ZM84.3273 56.9115H92.9062V58.7608H86.8441V59.9645H92.764V61.8247H86.8441V63.1597H93.0156V65.0527H84.3273V56.9115ZM93.976 65.0527V56.9115H96.5256V59.8769H101.997V56.9115H104.546V65.0527H101.997V61.8466H96.5256V65.0527H93.976ZM108.948 65.0527V58.8374H105.446V56.9115H115.032V58.8374H111.519V65.0527H108.948ZM123.871 65.0527V59.68L118.411 65.0527H115.861V56.9115H118.411V62.3062L123.871 56.9115H126.42V65.0527H123.871ZM133.744 62.339H130.187V65.0527H127.638V56.9115H133.744C136.676 56.9115 137.541 58.0714 137.541 59.5596V59.669C137.541 61.1244 136.654 62.339 133.744 62.339ZM130.187 58.7608V60.5116H133.7C134.499 60.5116 134.882 60.2162 134.882 59.6581V59.6253C134.882 59.0672 134.521 58.7608 133.7 58.7608H130.187ZM0.623722 79.0527V70.9115H7.59408C9.92483 70.9115 10.5704 71.8088 10.5704 72.7717V72.9249C10.5704 73.9864 9.67316 74.3912 9.27923 74.5116C9.83729 74.6539 11.03 75.1244 11.03 76.5578V76.711C11.03 77.9913 10.2969 79.0527 7.65974 79.0527H0.623722ZM7.15638 72.6295H3.17332V73.9535H7.15638C7.86765 73.9535 8.04273 73.6253 8.04273 73.297V73.2751C8.04273 72.9359 7.86765 72.6295 7.15638 72.6295ZM7.37523 75.6824H3.17332V77.2801H7.37523C8.21781 77.2801 8.38194 76.8095 8.38194 76.4813V76.4375C8.38194 76.0873 8.21781 75.6824 7.37523 75.6824ZM15.1353 79.0527V70.9115H18.7573L21.5695 75.9779L24.3927 70.9115H27.8833V79.0527H25.3666V73.4174L22.1604 79.0527H20.7926L17.5865 73.4174V79.0527H15.1353ZM37.047 79.0527V73.68L31.5867 79.0527H29.0371V70.9115H31.5867V76.3062L37.047 70.9115H39.5966V79.0527H37.047ZM46.9198 76.339H43.3634V79.0527H40.8138V70.9115H46.9198C49.8523 70.9115 50.7168 72.0714 50.7168 73.5596V73.669C50.7168 75.1244 49.8305 76.339 46.9198 76.339ZM43.3634 72.7608V74.5116H46.876C47.6748 74.5116 48.0578 74.2162 48.0578 73.6581V73.6253C48.0578 73.0672 47.6967 72.7608 46.876 72.7608H43.3634ZM51.4892 70.9115H60.0681V72.7608H54.006V73.9645H59.9258V75.8247H54.006V77.1597H60.1775V79.0527H51.4892V70.9115ZM64.504 79.0527V70.9115H74.6258V79.0527H72.0762V72.8812H67.0536V79.0527H64.504ZM81.9485 76.339H78.3922V79.0527H75.8426V70.9115H81.9485C84.8811 70.9115 85.7456 72.0714 85.7456 73.5596V73.669C85.7456 75.1244 84.8592 76.339 81.9485 76.339ZM78.3922 72.7608V74.5116H81.9048C82.7036 74.5116 83.0865 74.2162 83.0865 73.6581V73.6253C83.0865 73.0672 82.7254 72.7608 81.9048 72.7608H78.3922ZM91.9235 70.7693H92.3941C97.5152 70.7693 98.117 73.3408 98.117 74.7961V75.1244C98.117 76.5578 97.5261 79.195 92.3941 79.195H91.9235C86.7696 79.195 86.1897 76.5578 86.1897 75.1244V74.7961C86.1897 73.3408 86.7696 70.7693 91.9235 70.7693ZM95.447 75.0259V74.8727C95.447 73.9426 94.9108 72.7389 92.1533 72.7389C89.3521 72.7389 88.8596 73.9426 88.8596 74.8727V75.004C88.8596 75.9341 89.3958 77.2144 92.1533 77.2144C94.889 77.2144 95.447 75.967 95.447 75.0259ZM104.504 71.5352V70.8021H107.054V71.5352H109.144C111.07 71.5352 113.05 72.4435 113.05 74.7523V74.8727C113.05 77.1925 111.08 78.1117 109.155 78.1117H107.054V79.1622H104.504V78.1117H102.403C100.477 78.1117 98.5076 77.1925 98.5076 74.8727V74.7633C98.5076 72.4544 100.488 71.5352 102.414 71.5352H104.504ZM107.054 73.3955V76.2515H108.575C109.789 76.2515 110.479 75.7262 110.479 74.8508V74.7633C110.479 73.8879 109.767 73.3955 108.575 73.3955H107.054ZM104.504 73.3955H102.983C101.768 73.3955 101.079 73.8879 101.079 74.7633V74.8508C101.079 75.7262 101.768 76.2515 102.983 76.2515H104.504V73.3955ZM113.842 70.9115H122.421V72.7608H116.359V73.9645H122.279V75.8247H116.359V77.1597H122.53V79.0527H113.842V70.9115ZM129.072 79.195H128.623C123.907 79.195 123.174 76.5578 123.174 75.1134V74.7961C123.174 73.3189 123.809 70.7693 128.623 70.7693H129.072C133.788 70.7693 134.521 73.0234 134.521 73.9754V74.0958H131.819C131.753 73.8769 131.425 72.7389 128.842 72.7389C126.402 72.7389 125.844 73.8332 125.844 74.8508V74.9821C125.844 75.9451 126.49 77.2144 128.864 77.2144C131.501 77.2144 131.764 75.956 131.829 75.77H134.532V75.8904C134.532 76.9189 133.723 79.195 129.072 79.195ZM140.923 79.195H140.474C135.758 79.195 135.025 76.5578 135.025 75.1134V74.7961C135.025 73.3189 135.659 70.7693 140.474 70.7693H140.923C145.639 70.7693 146.372 73.0234 146.372 73.9754V74.0958H143.669C143.604 73.8769 143.275 72.7389 140.693 72.7389C138.253 72.7389 137.695 73.8332 137.695 74.8508V74.9821C137.695 75.9451 138.34 77.2144 140.715 77.2144C143.352 77.2144 143.615 75.956 143.68 75.77H146.383V75.8904C146.383 76.9189 145.573 79.195 140.923 79.195ZM155.181 79.0527V73.68L149.721 79.0527H147.171V70.9115H149.721V76.3062L155.181 70.9115H157.731V79.0527H155.181ZM166.925 79.0527V73.68L161.465 79.0527H158.915V70.9115H161.465V76.3062L166.925 70.9115H169.474V79.0527H166.925ZM164.463 70.441H164.091C162.11 70.441 161.716 69.2154 161.716 68.6683V68.6464H163.598C163.598 68.7887 163.697 69.1717 164.288 69.1717C164.857 69.1717 164.966 68.7887 164.966 68.6464H166.805V68.6683C166.805 69.2154 166.279 70.441 164.463 70.441Z" fill="white"/>
<path d="M69.6319 48.5352H54.3535L71.6649 30.7284L54.9086 13.4434H71.1099L79.7967 22.6403L88.482 13.4434H103.884L87.2504 30.4675L104.437 48.5352H88.9139L79.1809 38.4904L69.6319 48.5352Z" fill="white"/>
<path d="M120.391 13.4434V48.5352H106.654V13.4434H120.391Z" fill="white"/>
<path d="M148.202 49.5136H145.674C126.332 49.5136 124.359 41.5558 124.359 37.0553V36.6639H138.529C138.529 37.9684 139.022 41.4254 147.031 41.4254H147.152C154.791 41.4254 155.716 39.7948 155.716 38.099V37.9684C155.716 36.1421 154.916 35.0984 148.448 34.9029L142.533 34.7723C128.118 34.4461 124.668 28.9671 124.668 23.8143V23.4229C124.668 18.0091 127.379 12.4648 145.614 12.4648H148.077C164.833 12.4648 168.838 18.0091 168.838 23.4881V23.9447H154.854C154.67 22.6402 154.052 20.3573 146.661 20.3573H146.599C140.007 20.3573 138.713 21.2052 138.713 22.9664V23.0968C138.713 24.6622 139.947 25.7058 145.674 25.9016L151.589 26.032C166.868 26.3582 170.07 30.0108 170.07 37.0553V37.4466C170.07 43.904 166.497 49.5136 148.202 49.5136Z" fill="white"/>
<path d="M105.206 12.8867L104.3 13.8145L69.9971 48.917L69.8369 49.0811H53.0498L53.9502 48.1543L88.0918 13.0518L88.2529 12.8867H105.206Z" fill="white" stroke="#212121" stroke-width="1.09165"/>
<path d="M33.7687 33.1035V31.9949L19.8785 34.1469C16.1615 34.7338 14.5964 35.3859 14.5964 37.4074V37.4727C14.5964 39.3638 16.031 41.4506 20.9871 41.4506C28.7474 41.4506 33.7687 37.277 33.7687 33.1035ZM34.1599 43.8634C32.6601 45.7546 28.2257 49.3412 17.9222 49.3412H17.0744C5.2711 49.3412 0.771484 43.8634 0.771484 37.8639V37.4074C0.771484 30.9515 5.01025 27.8865 15.5094 26.9083L31.5515 25.4085C33.1818 25.2128 33.7687 24.6911 33.7687 23.5825C33.7687 22.2783 33.1818 20.7132 24.639 20.7132H24.313C15.6398 20.7132 15.3137 23.4521 15.1181 24.6259H1.61924V24.4955C1.61924 19.8655 2.98869 12.627 22.5522 12.627H26.1389C46.485 12.627 47.7892 18.8873 47.7892 23.9738V37.4074C47.7892 38.4508 48.1153 39.1682 49.6151 39.1682H51.5063V48.6891H39.7029C36.8988 48.6891 34.6816 47.1892 34.1599 43.8634Z" fill="white"/>
<path d="M117.386 0.0078125L120.391 10.0449H107.906L107.905 10.0459H91.1094L110.489 0H117.394L117.386 0.0078125Z" fill="white"/>
</svg>
