<svg width="324" height="61" viewBox="0 0 324 61" fill="none" xmlns="http://www.w3.org/2000/svg">
<path d="M22.5 2.5H2.5V22.5" stroke="white" stroke-width="5"/>
<path d="M301.457 57.6123H321.457V37.6123" stroke="white" stroke-width="5"/>
<path d="M28.2445 25.8711V15.6471H22.4845V12.4791H38.2525V15.6471H32.4745V25.8711H28.2445ZM39.6705 25.8711V12.4791H51.1365C54.9705 12.4791 56.0325 13.9551 56.0325 15.5391V15.7911C56.0325 17.5371 54.5565 18.2031 53.9085 18.4011C54.8265 18.6351 56.7885 19.4091 56.7885 21.7671V22.0191C56.7885 24.1251 55.5825 25.8711 51.2445 25.8711H39.6705ZM50.4165 15.3051H43.8645V17.4831H50.4165C51.5865 17.4831 51.8745 16.9431 51.8745 16.4031V16.3671C51.8745 15.8091 51.5865 15.3051 50.4165 15.3051ZM50.7765 20.3271H43.8645V22.9551H50.7765C52.1625 22.9551 52.4325 22.1811 52.4325 21.6411V21.5691C52.4325 20.9931 52.1625 20.3271 50.7765 20.3271ZM66.8965 12.2451H67.6705C76.0945 12.2451 77.0845 16.4751 77.0845 18.8691V19.4091C77.0845 21.7671 76.1125 26.1051 67.6705 26.1051H66.8965C58.4185 26.1051 57.4645 21.7671 57.4645 19.4091V18.8691C57.4645 16.4751 58.4185 12.2451 66.8965 12.2451ZM72.6925 19.2471V18.9951C72.6925 17.4651 71.8105 15.4851 67.2745 15.4851C62.6665 15.4851 61.8565 17.4651 61.8565 18.9951V19.2111C61.8565 20.7411 62.7385 22.8471 67.2745 22.8471C71.7745 22.8471 72.6925 20.7951 72.6925 19.2471ZM91.605 25.8711V17.0331L82.623 25.8711H78.429V12.4791H82.623V21.3531L91.605 12.4791H95.799V25.8711H91.605ZM87.555 11.7051H86.943C83.685 11.7051 83.037 9.68909 83.037 8.78909V8.75309H86.133C86.133 8.98709 86.295 9.61709 87.267 9.61709C88.203 9.61709 88.383 8.98709 88.383 8.75309H91.407V8.78909C91.407 9.68909 90.543 11.7051 87.555 11.7051ZM112.23 12.2451H113.005C121.429 12.2451 122.419 16.4751 122.419 18.8691V19.4091C122.419 21.7671 121.447 26.1051 113.005 26.1051H112.23C103.753 26.1051 102.799 21.7671 102.799 19.4091V18.8691C102.799 16.4751 103.753 12.2451 112.23 12.2451ZM118.027 19.2471V18.9951C118.027 17.4651 117.145 15.4851 112.609 15.4851C108.001 15.4851 107.191 17.4651 107.191 18.9951V19.2111C107.191 20.7411 108.073 22.8471 112.609 22.8471C117.109 22.8471 118.027 20.7951 118.027 19.2471ZM133.861 21.4071H128.011V25.8711H123.817V12.4791H133.861C138.685 12.4791 140.107 14.3871 140.107 16.8351V17.0151C140.107 19.4091 138.649 21.4071 133.861 21.4071ZM128.011 15.5211V18.4011H133.789C135.103 18.4011 135.733 17.9151 135.733 16.9971V16.9431C135.733 16.0251 135.139 15.5211 133.789 15.5211H128.011ZM154.5 25.8711V17.0331L145.518 25.8711H141.324V12.4791H145.518V21.3531L154.5 12.4791H158.694V25.8711H154.5ZM160.696 12.4791H174.808V15.5211H164.836V17.5011H174.574V20.5611H164.836V22.7571H174.988V25.8711H160.696V12.4791ZM176.568 25.8711V12.4791H180.762V17.3571H189.762V12.4791H193.956V25.8711H189.762V20.5971H180.762V25.8711H176.568ZM201.196 25.8711V15.6471H195.436V12.4791H211.204V15.6471H205.426V25.8711H201.196ZM225.744 25.8711V17.0331L216.762 25.8711H212.568V12.4791H216.762V21.3531L225.744 12.4791H229.938V25.8711H225.744ZM241.984 21.4071H236.134V25.8711H231.94V12.4791H241.984C246.808 12.4791 248.23 14.3871 248.23 16.8351V17.0151C248.23 19.4091 246.772 21.4071 241.984 21.4071ZM236.134 15.5211V18.4011H241.912C243.226 18.4011 243.856 17.9151 243.856 16.9971V16.9431C243.856 16.0251 243.262 15.5211 241.912 15.5211H236.134Z" fill="white"/>
<path d="M23.0065 47.8711V34.4791H34.4725C38.3065 34.4791 39.3685 35.9551 39.3685 37.5391V37.7911C39.3685 39.5371 37.8925 40.2031 37.2445 40.4011C38.1625 40.6351 40.1245 41.4091 40.1245 43.7671V44.0191C40.1245 46.1251 38.9185 47.8711 34.5805 47.8711H23.0065ZM33.7525 37.3051H27.2005V39.4831H33.7525C34.9225 39.4831 35.2105 38.9431 35.2105 38.4031V38.3671C35.2105 37.8091 34.9225 37.3051 33.7525 37.3051ZM34.1125 42.3271H27.2005V44.9551H34.1125C35.4985 44.9551 35.7685 44.1811 35.7685 43.6411V43.5691C35.7685 42.9931 35.4985 42.3271 34.1125 42.3271ZM46.8776 47.8711V34.4791H52.8356L57.4616 42.8131L62.1056 34.4791H67.8476V47.8711H63.7076V38.6011L58.4336 47.8711H56.1836L50.9096 38.6011V47.8711H46.8776ZM82.9214 47.8711V39.0331L73.9394 47.8711H69.7454V34.4791H73.9394V43.3531L82.9214 34.4791H87.1154V47.8711H82.9214ZM99.1618 43.4071H93.3118V47.8711H89.1178V34.4791H99.1618C103.986 34.4791 105.408 36.3871 105.408 38.8351V39.0151C105.408 41.4091 103.95 43.4071 99.1618 43.4071ZM93.3118 37.5211V40.4011H99.0898C100.404 40.4011 101.034 39.9151 101.034 38.9971V38.9431C101.034 38.0251 100.44 37.5211 99.0898 37.5211H93.3118ZM106.678 34.4791H120.79V37.5211H110.818V39.5011H120.556V42.5611H110.818V44.7571H120.97V47.8711H106.678V34.4791ZM128.087 47.8711V34.4791H144.737V47.8711H140.543V37.7191H132.281V47.8711H128.087ZM156.783 43.4071H150.933V47.8711H146.739V34.4791H156.783C161.607 34.4791 163.029 36.3871 163.029 38.8351V39.0151C163.029 41.4091 161.571 43.4071 156.783 43.4071ZM150.933 37.5211V40.4011H156.711C158.025 40.4011 158.655 39.9151 158.655 38.9971V38.9431C158.655 38.0251 158.061 37.5211 156.711 37.5211H150.933ZM173.191 34.2451H173.965C182.389 34.2451 183.379 38.4751 183.379 40.8691V41.4091C183.379 43.7671 182.407 48.1051 173.965 48.1051H173.191C164.713 48.1051 163.759 43.7671 163.759 41.4091V40.8691C163.759 38.4751 164.713 34.2451 173.191 34.2451ZM178.987 41.2471V40.9951C178.987 39.4651 178.105 37.4851 173.569 37.4851C168.961 37.4851 168.151 39.4651 168.151 40.9951V41.2111C168.151 42.7411 169.033 44.8471 173.569 44.8471C178.069 44.8471 178.987 42.7951 178.987 41.2471ZM193.886 35.5051V34.2991H198.08V35.5051H201.518C204.686 35.5051 207.944 36.9991 207.944 40.7971V40.9951C207.944 44.8111 204.704 46.3231 201.536 46.3231H198.08V48.0511H193.886V46.3231H190.43C187.262 46.3231 184.022 44.8111 184.022 40.9951V40.8151C184.022 37.0171 187.28 35.5051 190.448 35.5051H193.886ZM198.08 38.5651V43.2631H200.582C202.58 43.2631 203.714 42.3991 203.714 40.9591V40.8151C203.714 39.3751 202.544 38.5651 200.582 38.5651H198.08ZM193.886 38.5651H191.384C189.386 38.5651 188.252 39.3751 188.252 40.8151V40.9591C188.252 42.3991 189.386 43.2631 191.384 43.2631H193.886V38.5651ZM209.247 34.4791H223.359V37.5211H213.387V39.5011H223.125V42.5611H213.387V44.7571H223.539V47.8711H209.247V34.4791ZM234.299 48.1051H233.561C225.803 48.1051 224.597 43.7671 224.597 41.3911V40.8691C224.597 38.4391 225.641 34.2451 233.561 34.2451H234.299C242.057 34.2451 243.263 37.9531 243.263 39.5191V39.7171H238.817C238.709 39.3571 238.169 37.4851 233.921 37.4851C229.907 37.4851 228.989 39.2851 228.989 40.9591V41.1751C228.989 42.7591 230.051 44.8471 233.957 44.8471C238.295 44.8471 238.727 42.7771 238.835 42.4711H243.281V42.6691C243.281 44.3611 241.949 48.1051 234.299 48.1051ZM253.793 48.1051H253.055C245.297 48.1051 244.091 43.7671 244.091 41.3911V40.8691C244.091 38.4391 245.135 34.2451 253.055 34.2451H253.793C261.551 34.2451 262.757 37.9531 262.757 39.5191V39.7171H258.311C258.203 39.3571 257.663 37.4851 253.415 37.4851C249.401 37.4851 248.483 39.2851 248.483 40.9591V41.1751C248.483 42.7591 249.545 44.8471 253.451 44.8471C257.789 44.8471 258.221 42.7771 258.329 42.4711H262.775V42.6691C262.775 44.3611 261.443 48.1051 253.793 48.1051ZM277.248 47.8711V39.0331L268.266 47.8711H264.072V34.4791H268.266V43.3531L277.248 34.4791H281.442V47.8711H277.248ZM296.566 47.8711V39.0331L287.584 47.8711H283.39V34.4791H287.584V43.3531L296.566 34.4791H300.76V47.8711H296.566ZM292.516 33.7051H291.904C288.646 33.7051 287.998 31.6891 287.998 30.7891V30.7531H291.094C291.094 30.9871 291.256 31.6171 292.228 31.6171C293.164 31.6171 293.344 30.9871 293.344 30.7531H296.368V30.7891C296.368 31.6891 295.504 33.7051 292.516 33.7051Z" fill="#212121"/>
</svg>
